<?xml version="1.0" encoding="UTF-8"?>
<svg width="32px" height="32px" viewBox="0 0 32 32" version="1.1" xmlns="http://www.w3.org/2000/svg" xmlns:xlink="http://www.w3.org/1999/xlink">
    <title>F4FB6566-7CD8-411B-8F6D-CCE6C6CD0EFD</title>
    <g id="recipes" stroke="none" stroke-width="1" fill="none" fill-rule="evenodd">
        <g id="web_recipe_detail_ph" transform="translate(-486.000000, -3053.000000)">
            <g id="Group-3" transform="translate(19.500000, 2724.000000)">
                <g id="web/card/product/list" transform="translate(0.500000, 74.000000)">
                    <g id="Content" transform="translate(356.000000, 20.000000)">
                        <g id="CTA" transform="translate(0.000000, 235.000000)">
                            <g id="Group" transform="translate(110.000000, 0.000000)">
                                <g id="web/shape/irregular-elipse" fill="#DB1024">
                                    <path d="M0.0148405939,15.0573541 C-0.351272403,7.85861013 6.12631071,3.08714071 11.7219061,1.0250239 C12.2639503,0.804413609 12.8197269,0.616922928 13.3879405,0.465077931 C14.525145,0.161107262 15.713911,0 16.937656,0 C25.095006,0 31.707841,7.16337897 31.707841,16.0001403 C31.707841,24.836621 25.095006,32 16.937656,32 C16.019912,32 15.1218599,31.9096228 14.2502363,31.7358851 C13.3788719,31.5624282 12.534195,31.3061722 11.7232016,30.9741341 C9.72162844,30.0944997 7.92371047,28.7949759 6.35587625,27.2229171 C5.83300574,26.6991781 5.33604557,26.1448457 4.86577303,25.5658138 C4.3952414,24.986782 3.95036099,24.3830508 3.53294553,23.759953 C3.11578918,23.1368552 2.72609778,22.4946716 2.36464864,21.8384542 C1.64200947,20.5260194 1.03259845,19.1582917 0.543670479,17.7793371 C0.278607778,16.8800554 0.106563171,15.9729149 0.0148405939,15.0573541"></path>
                                </g>
                                <g id="web/icon/md/arrow-right" transform="translate(2.000000, 2.000000)" fill="#FFFFFF">
                                    <g id="arrow-right" transform="translate(6.000000, 6.000000)">
                                        <path d="M7.293,1.707 L12.586,7 L1,7 C0.448,7 -1.77635684e-15,7.448 -1.77635684e-15,8 C-1.77635684e-15,8.552 0.448,9 1,9 L12.586,9 L7.293,14.293 C6.902,14.684 6.902,15.317 7.293,15.707 C7.684,16.097 8.317,16.098 8.707,15.707 L15.707,8.707 C15.799,8.615 15.873,8.505 15.924,8.383 C16.025,8.138 16.025,7.862 15.924,7.617 C15.875,7.499 15.803,7.389 15.707,7.293 L8.707,0.293 C8.316,-0.098 7.683,-0.098 7.293,0.293 C6.903,0.684 6.902,1.317 7.293,1.707 Z" id="Path"></path>
                                    </g>
                                </g>
                            </g>
                        </g>
                    </g>
                </g>
            </g>
        </g>
    </g>
</svg>